<?xml version="1.0" encoding="UTF-8"?>
<svg width="137px" height="44px" viewBox="0 0 137 44" version="1.1" xmlns="http://www.w3.org/2000/svg" xmlns:xlink="http://www.w3.org/1999/xlink">
    <!-- Generator: Sketch 58 (84663) - https://sketch.com -->
    <title>Logo/WithSlogan</title>
    <desc>Created with Sketch.</desc>
    <g id="Logo/WithSlogan" stroke="none" stroke-width="1" fill="none" fill-rule="evenodd">
        <g id="GEALAN-Logo-RGB-Copy" fill-rule="nonzero">
            <g id="Group" fill="#004891">
                <path d="M16.7773913,0.0908695652 C7.69043478,0.0908695652 0.325217391,7.45608696 0.325217391,16.5430435 C0.325217391,25.63 7.69043478,32.9952174 16.7773913,32.9952174 C25.8643478,32.9952174 33.2295652,25.63 33.2295652,16.5430435 C33.2295652,7.45608696 25.8643478,0.0908695652 16.7773913,0.0908695652 Z M16.7773913,30.3121739 C10.7178261,30.3121739 5.57652174,26.3952174 3.73521739,20.9573913 C5.60043478,25.1708696 9.83782609,28.1121739 14.7686957,28.1121739 C21.3304348,28.1121739 26.5721739,23.0091304 26.7252174,16.5382609 L16.7773913,16.5382609 C16.7008696,20.3021739 13.7213043,23.233913 9.93826087,23.233913 C6.15521739,23.233913 3.08956522,20.2065217 3.01304348,16.4426087 L3.00826087,16.4426087 C3.06086957,8.88130435 9.20652174,2.76913043 16.7773913,2.76913043 C24.3865217,2.76913043 30.5513043,8.93391304 30.5513043,16.5430435 C30.5513043,24.1473913 24.3865217,30.3121739 16.7773913,30.3121739 Z" id="Shape"></path>
                <g transform="translate(37.304348, 4.782609)">
                    <path d="M4.52434783,20.5891304 C1.60695652,18.4321739 0.191304348,14.4626087 0.191304348,11.6743478 C0.191304348,5.46173913 5.23217391,0.602608696 11.44,0.420869565 C16.4665217,0.272608696 19.666087,3.99347826 19.666087,3.99347826 C20.2017391,4.50043478 20.2065217,5.36130435 19.6995652,5.89695652 C19.1926087,6.4326087 18.346087,6.45173913 17.8104348,5.94 L17.8104348,5.94478261 C16.2417391,4.19913043 13.97,3.10391304 11.44,3.10391304 C6.71,3.10391304 2.87434783,6.93956522 2.87434783,11.6695652 C2.87434783,16.3995652 6.71,20.2352174 11.44,20.2352174 C15.6247826,20.2352174 19.1113043,17.2317391 19.8573913,13.2621739 L13.5204348,13.2621739 C12.783913,13.2621739 12.186087,12.6643478 12.186087,11.9278261 C12.186087,11.1913043 12.783913,10.5934783 13.5204348,10.5934783 L21.3304348,10.5934783 C22.7317391,10.7130435 22.66,11.9373913 22.66,11.9373913 C22.5117391,18.0208696 17.8247826,22.9182609 11.7030435,22.9182609 C11.7030435,22.9326087 7.95347826,23.1286957 4.52434783,20.5891304 Z" id="Path"></path>
                    <path d="M24.6830435,21.3830435 C24.6830435,22.1195652 25.2808696,22.7173913 26.0173913,22.7173913 L26.0317391,22.7173913 L33.1243478,22.7173913 C33.1243478,22.7173913 34.3391304,22.77 34.453913,21.3830435 C34.453913,20.6465217 33.856087,20.0486957 33.1195652,20.0486957 L27.3469565,20.043913 L27.3469565,13.2717391 L33.11,13.2717391 C33.11,13.2717391 34.3534783,13.3052174 34.4491304,11.9421739 C34.4491304,11.2056522 33.8513043,10.6078261 33.1147826,10.6078261 L27.3517391,10.6030435 L27.3565217,3.31434783 L27.3565217,3.31434783 L33.1147826,3.31434783 C33.1147826,3.31434783 34.3630435,3.32391304 34.4634783,1.97521739 C34.516087,1.23869565 33.8465217,0.636086957 33.1243478,0.636086957 C32.9856522,0.636086957 26.0173913,0.636086957 26.0173913,0.636086957 C25.2808696,0.636086957 24.6782609,1.23391304 24.6782609,1.97043478 L24.6830435,21.4595652 L24.6830435,21.3830435 Z" id="Path"></path>
                    <path d="M84.063913,5.93521739 L96.1830435,22.1626087 L96.1830435,22.1626087 C96.3695652,22.4304348 96.6947826,22.6695652 97.2591304,22.7030435 C98.67,22.6695652 98.5934783,21.3686957 98.5934783,21.3686957 L98.583913,10.0721739 L98.5886957,10.0721739 L98.5886957,1.76478261 C98.5886957,1.76478261 98.5982609,0.516521739 97.2543478,0.430434783 C95.8434783,0.459130435 95.9247826,1.76478261 95.9247826,1.76478261 L95.92,13.8743478 L95.896087,17.3369565 L83.7147826,1.0426087 C83.7147826,1.0426087 83.2030435,0.640869565 82.7104348,0.612173913 C81.2995652,0.640869565 81.376087,1.94652174 81.376087,1.94652174 L81.3713025,13.2191304 L81.3713025,13.223913 L81.3713025,21.5934783 C81.3713025,21.5934783 81.3617391,22.8417391 82.7056522,22.9278261 C84.1165217,22.8943478 84.04,21.5934783 84.04,21.5934783 L84.0447826,10.3208696 L84.0447826,10.3256522 L84.0447826,5.90652174" id="Path"></path>
                    <path d="M79.286087,21.1821739 L72.9108696,1.87 C72.8965217,1.83173913 72.8534783,1.75043478 72.8534783,1.75043478 C72.5282609,0.99 71.7773913,0.411304348 70.8878261,0.411304348 C69.96,0.411304348 69.1708696,1.03782609 68.8695652,1.85086957 L62.8243478,20.0534783 L57.5347826,20.0534783 L57.5395652,1.95608696 C57.5395652,1.95608696 57.53,0.683913043 56.2052174,0.626521739 C55.4734783,0.597826087 54.8804348,1.21478261 54.8708696,1.94173913 L54.8756522,21.4165217 C54.8756522,21.4165217 54.8756522,22.6169565 56.21,22.7126087 L63.7521739,22.7126087 L63.7473913,22.7126087 C64.3356522,22.7126087 64.8665217,22.3395652 65.0434783,21.8134783 L65.0434783,21.8134783 L66.9756522,15.9404348 L74.7426087,15.9404348 L76.7656522,22.0430435 C76.7656522,22.0430435 76.8086957,22.1578261 76.8421739,22.22 C77.0669565,22.6408696 77.5117391,22.9278261 78.0186957,22.9278261 C78.7552174,22.9278261 79.3485054,22.3347826 79.3485054,21.5982609 C79.3530435,21.4547826 79.286087,21.1821739 79.286087,21.1821739 Z M67.8795652,13.2908696 L70.8543478,4.20391304 L73.8769565,13.2813043 L67.8795652,13.2908696 Z" id="Shape"></path>
                    <path d="M52.8143478,21.1821739 L46.4391304,1.87478261 C46.4247826,1.83652174 46.3817391,1.75521739 46.3817391,1.75521739 C46.0565217,0.994782609 45.3056522,0.416086957 44.416087,0.416086957 C43.4882609,0.416086957 42.6991304,1.0426087 42.3978261,1.85565217 L36.056087,20.9621739 L36.0608696,20.9382609 C36.0178261,21.0721739 35.993913,21.2108696 35.993913,21.3591304 C35.993913,22.1004348 36.5965217,22.66 37.3330435,22.6982609 C38.1652174,22.746087 38.5908696,21.8182609 38.5908696,21.8182609 L40.4991304,15.95 L48.266087,15.95 L50.2891304,22.0526087 C50.2891304,22.0526087 50.3321739,22.1673913 50.3656522,22.2295652 C50.5904348,22.6504348 51.0352174,22.9373913 51.5421739,22.9373913 C52.2786957,22.9373913 52.8717391,22.3443478 52.8717391,21.6078261 C52.8813043,21.4547826 52.8143478,21.1821739 52.8143478,21.1821739 Z M41.4078261,13.2908696 L44.3826087,4.20391304 L47.4052174,13.2813043 L41.4078261,13.2908696 Z" id="Shape"></path>
                </g>
            </g>
            <g id="Group" transform="translate(37.304348, 38.260870)" fill="#55565B">
                <polygon id="Path" points="1.23869565 0.358695652 1.23869565 5.49043478 0.301304348 5.49043478 0.301304348 0.358695652"></polygon>
                <path d="M3.04652174,5.49043478 L3.04652174,0.358695652 L4.11304348,0.358695652 L5.43782609,2.55869565 C5.78217391,3.12782609 6.07869565,3.72565217 6.31304348,4.28043478 L6.3273913,4.28043478 C6.26521739,3.59652174 6.24130435,2.93173913 6.24130435,2.1473913 L6.24130435,0.358695652 L7.10695652,0.358695652 L7.10695652,5.49043478 L6.14086957,5.49043478 L4.80173913,3.22826087 C4.47652174,2.67347826 4.13217391,2.04217391 3.87869565,1.46347826 L3.85478261,1.47304348 C3.89304348,2.13782609 3.9026087,2.81217391 3.9026087,3.65869565 L3.9026087,5.49521739 L3.04652174,5.49521739 L3.04652174,5.49043478 Z" id="Path"></path>
                <path d="M8.93391304,5.49043478 L8.93391304,0.358695652 L10.0004348,0.358695652 L11.3252174,2.55869565 C11.6695652,3.12782609 11.966087,3.72565217 12.2004348,4.28043478 L12.2147826,4.28043478 C12.1526087,3.59652174 12.1286957,2.93173913 12.1286957,2.1473913 L12.1286957,0.358695652 L12.9943478,0.358695652 L12.9943478,5.49043478 L12.0282609,5.49043478 L10.6891304,3.22826087 C10.363913,2.67347826 10.0195652,2.04217391 9.76608696,1.46347826 L9.74217391,1.47304348 C9.78043478,2.13782609 9.79,2.81217391 9.79,3.65869565 L9.79,5.49521739 L8.93391304,5.49521739 L8.93391304,5.49043478 Z" id="Path"></path>
                <path d="M19.3886957,2.86956522 C19.3886957,4.59130435 18.346087,5.57173913 16.9304348,5.57173913 C15.4813043,5.57173913 14.5678261,4.46695652 14.5678261,2.96043478 C14.5678261,1.38217391 15.5578261,0.272608696 17.0069565,0.272608696 C18.503913,0.272608696 19.3886957,1.40608696 19.3886957,2.86956522 Z M15.5578261,2.94608696 C15.5578261,3.98869565 16.083913,4.82565217 16.9830435,4.82565217 C17.8869565,4.82565217 18.3986957,3.97913043 18.3986957,2.90782609 C18.3986957,1.94173913 17.9204348,1.01869565 16.9830435,1.01869565 C16.0552174,1.01869565 15.5578261,1.88913043 15.5578261,2.94608696 Z" id="Shape"></path>
                <path d="M21.9378261,5.49043478 L20.2782609,0.358695652 L21.2969565,0.358695652 L21.9952174,2.68782609 C22.1913043,3.33347826 22.3586957,3.93608696 22.4973913,4.5626087 L22.5117391,4.5626087 C22.6504348,3.95521739 22.8321739,3.32869565 23.0378261,2.70695652 L23.783913,0.363478261 L24.7834783,0.363478261 L23.0091304,5.49521739 L21.9378261,5.49521739 L21.9378261,5.49043478 Z" id="Path"></path>
                <path d="M26.7204348,4.03652174 L26.2804348,5.49043478 L25.3143478,5.49043478 L26.9595652,0.358695652 L28.1552174,0.358695652 L29.8243478,5.49043478 L28.82,5.49043478 L28.356087,4.03652174 L26.7204348,4.03652174 Z M28.1934783,3.32869565 L27.7917391,2.06608696 C27.6913043,1.75521739 27.61,1.40608696 27.5334783,1.10478261 L27.5191304,1.10478261 C27.4426087,1.40130435 27.366087,1.76 27.2752174,2.06608696 L26.8782609,3.32869565 L28.1934783,3.32869565 Z" id="Shape"></path>
                <polygon id="Path" points="31.7278261 1.14304348 30.2643478 1.14304348 30.2643478 0.358695652 34.1430435 0.358695652 34.1430435 1.14304348 32.6652174 1.14304348 32.6652174 5.49043478 31.7278261 5.49043478 31.7278261 1.14304348"></polygon>
                <polygon id="Path" points="36.4004348 0.358695652 36.4004348 5.49043478 35.4630435 5.49043478 35.4630435 0.358695652"></polygon>
                <path d="M42.7804348,2.86956522 C42.7804348,4.59130435 41.7378261,5.57173913 40.3221739,5.57173913 C38.8730435,5.57173913 37.9595652,4.46695652 37.9595652,2.96043478 C37.9595652,1.38217391 38.9495652,0.272608696 40.3986957,0.272608696 C41.9004348,0.272608696 42.7804348,1.40608696 42.7804348,2.86956522 Z M38.9495652,2.94608696 C38.9495652,3.98869565 39.4756522,4.82565217 40.3747826,4.82565217 C41.2786957,4.82565217 41.7904348,3.97913043 41.7904348,2.90782609 C41.7904348,1.94173913 41.3121739,1.01869565 40.3747826,1.01869565 C39.4469565,1.01869565 38.9495652,1.88913043 38.9495652,2.94608696 Z" id="Shape"></path>
                <path d="M44.3443478,5.49043478 L44.3443478,0.358695652 L45.4108696,0.358695652 L46.7356522,2.55869565 C47.08,3.12782609 47.3765217,3.72565217 47.6108696,4.28043478 L47.6252174,4.28043478 C47.5630435,3.59652174 47.5391304,2.93173913 47.5391304,2.1473913 L47.5391304,0.358695652 L48.4095652,0.358695652 L48.4095652,5.49043478 L47.4434783,5.49043478 L46.1043478,3.22826087 C45.7743478,2.67347826 45.4347826,2.04217391 45.1813043,1.46347826 L45.1573913,1.47304348 C45.1956522,2.13782609 45.2052174,2.81217391 45.2052174,3.65869565 L45.2052174,5.49521739 L44.3443478,5.49521739 L44.3443478,5.49043478 Z" id="Path"></path>
                <path d="M56.9226087,3.39565217 C56.893913,2.73086957 56.8556522,1.93217391 56.8604348,1.23391304 L56.8365217,1.23391304 C56.6691304,1.86521739 56.453913,2.55869565 56.2291304,3.20434783 L55.4830435,5.42826087 L54.7608696,5.42826087 L54.0769565,3.23304348 C53.8808696,2.57782609 53.6943478,1.87956522 53.5604348,1.22913043 L53.546087,1.22913043 C53.5221739,1.90826087 53.4934783,2.72130435 53.4552174,3.42434783 L53.3404348,5.49043478 L52.4652174,5.49043478 L52.8095652,0.358695652 L54.0434783,0.358695652 L54.7130435,2.42478261 C54.8947826,3.0273913 55.0573913,3.63478261 55.1865217,4.20869565 L55.2104348,4.20869565 C55.3491304,3.65391304 55.5213043,3.0226087 55.7221739,2.42 L56.43,0.363478261 L57.6495652,0.363478261 L57.946087,5.49521739 L57.0326087,5.49521739 L56.9226087,3.39565217 Z" id="Path"></path>
                <polygon id="Path" points="60.5765217 0.358695652 60.5765217 5.49043478 59.6391304 5.49043478 59.6391304 0.358695652"></polygon>
                <polygon id="Path" points="63.3504348 1.14304348 61.8869565 1.14304348 61.8869565 0.358695652 65.7656522 0.358695652 65.7656522 1.14304348 64.2878261 1.14304348 64.2878261 5.49043478 63.3504348 5.49043478 63.3504348 1.14304348"></polygon>
                <path d="M69.4434783,4.47173913 C69.7495652,4.64869565 70.203913,4.79695652 70.6869565,4.79695652 C71.2895652,4.79695652 71.6243478,4.51478261 71.6243478,4.09869565 C71.6243478,3.71130435 71.366087,3.48173913 70.7108696,3.2473913 C69.8643478,2.94130435 69.323913,2.49173913 69.323913,1.75521739 C69.323913,0.91826087 70.0221739,0.277391304 71.1365217,0.277391304 C71.6913043,0.277391304 72.1026087,0.396956522 72.3704348,0.535652174 L72.1408696,1.29130435 C71.9591304,1.19086957 71.6004348,1.0473913 71.1221739,1.0473913 C70.5291304,1.0473913 70.2708696,1.36782609 70.2708696,1.66434783 C70.2708696,2.06130435 70.5673913,2.24304348 71.2513043,2.51086957 C72.1408696,2.84565217 72.576087,3.29521739 72.576087,4.03173913 C72.576087,4.85434783 71.9495652,5.57652174 70.6247826,5.57652174 C70.0843478,5.57652174 69.52,5.41869565 69.2378261,5.25130435 L69.4434783,4.47173913 Z" id="Path"></path>
                <path d="M75.2926087,5.49043478 L75.2926087,3.34782609 L73.6713043,0.353913043 L74.7378261,0.353913043 L75.3547826,1.67391304 C75.5317391,2.05652174 75.6608696,2.34347826 75.7947826,2.6926087 L75.8091304,2.6926087 C75.9382609,2.3673913 76.0817391,2.04695652 76.2586957,1.67391304 L76.8756522,0.353913043 L77.9326087,0.353913043 L76.2252174,3.32391304 L76.2252174,5.48565217 L75.2926087,5.48565217 L75.2926087,5.49043478 Z" id="Path"></path>
                <path d="M79.0373913,4.47173913 C79.3434783,4.64869565 79.7978261,4.79695652 80.2808696,4.79695652 C80.8834783,4.79695652 81.2182609,4.51478261 81.2182609,4.09869565 C81.2182609,3.71130435 80.96,3.48173913 80.3047826,3.2473913 C79.4582609,2.94130435 78.9178261,2.49173913 78.9178261,1.75521739 C78.9178261,0.91826087 79.616087,0.277391304 80.7304348,0.277391304 C81.2852174,0.277391304 81.6965217,0.396956522 81.9643478,0.535652174 L81.7347826,1.29130435 C81.5530435,1.19086957 81.1943478,1.0473913 80.716087,1.0473913 C80.1230435,1.0473913 79.8647826,1.36782609 79.8647826,1.66434783 C79.8647826,2.06130435 80.1613043,2.24304348 80.8452174,2.51086957 C81.7347826,2.84565217 82.17,3.29521739 82.17,4.03173913 C82.17,4.85434783 81.5434783,5.57652174 80.2186957,5.57652174 C79.6782609,5.57652174 79.113913,5.41869565 78.8317391,5.25130435 L79.0373913,4.47173913 Z" id="Path"></path>
                <polygon id="Path" points="84.7286957 1.14304348 83.2652174 1.14304348 83.2652174 0.358695652 87.143913 0.358695652 87.143913 1.14304348 85.666087 1.14304348 85.666087 5.49043478 84.7286957 5.49043478 84.7286957 1.14304348"></polygon>
                <polygon id="Path" points="91.3382609 3.21391304 89.406087 3.21391304 89.406087 4.72043478 91.5678261 4.72043478 91.5678261 5.49043478 88.4686957 5.49043478 88.4686957 0.358695652 91.4530435 0.358695652 91.4530435 1.12869565 89.406087 1.12869565 89.406087 2.45347826 91.3382609 2.45347826"></polygon>
                <path d="M97.4504348,3.39565217 C97.4217391,2.73086957 97.3834783,1.93217391 97.3882609,1.23391304 L97.3643478,1.23391304 C97.1969565,1.86521739 96.9817391,2.55869565 96.7569565,3.20434783 L96.0108696,5.42826087 L95.2886957,5.42826087 L94.6047826,3.23304348 C94.4086957,2.57782609 94.2221739,1.87956522 94.0882609,1.22913043 L94.073913,1.22913043 C94.05,1.90826087 94.0213043,2.72130435 93.9830435,3.42434783 L93.8682609,5.49043478 L92.9930435,5.49043478 L93.3373913,0.358695652 L94.5713043,0.358695652 L95.2408696,2.42478261 C95.4226087,3.0273913 95.5852174,3.63478261 95.7143478,4.20869565 L95.7382609,4.20869565 C95.8769565,3.65391304 96.0491304,3.0226087 96.25,2.42 L96.9578261,0.363478261 L98.1773913,0.363478261 L98.473913,5.49521739 L97.5604348,5.49521739 L97.4504348,3.39565217 Z" id="Path"></path>
            </g>
        </g>
    </g>
</svg>