<svg width="195" height="40" viewBox="0 0 195 40" fill="none" xmlns="http://www.w3.org/2000/svg">
<g clip-path="url(#clip0_614_20395)">
<path d="M36.0003 -0.000542011H20.2396C19.2829 3.65424 19.8685 7.69003 22.1912 11.0372L22.1968 11.0442L26.3455 17.0189C27.6437 18.9578 28.4029 21.2889 28.4029 23.7993C28.4029 30.5374 22.9405 35.9998 16.2024 35.9998C9.46434 35.9998 4.00051 30.5374 4.00051 23.7993C4.00051 19.0636 6.69997 14.9615 10.644 12.9394C10.7329 12.8956 10.8204 12.8505 10.9079 12.8039C15.3656 10.46 18.4066 5.78503 18.4066 0.398803C18.4066 0.264747 18.4037 0.132103 18.4009 -0.00195312H4.00051C1.7907 -0.000542011 0 1.79016 0 3.99997V35.9998C0 38.2096 1.7907 40.0003 4.00051 40.0003H36.0003C38.2101 40.0003 40.0008 38.2096 40.0008 35.9998V3.99997C40.0008 1.79157 38.2101 -0.000542011 36.0003 -0.000542011Z" fill="#FF2427"/>
<path d="M20.2567 -0.000542011C19.2999 3.65424 19.8856 7.69003 22.2082 11.0372L22.2139 11.0442L26.3612 17.0189C27.6594 18.9578 28.4186 21.2889 28.4186 23.7993C28.4186 30.5374 22.9561 35.9998 16.2181 35.9998C9.48 35.9998 4.01758 30.5374 4.01758 23.7993C4.01758 19.0636 6.71845 14.9615 10.6611 12.9394C10.75 12.8956 10.8375 12.8505 10.925 12.8039C15.3827 10.46 18.4236 5.78503 18.4236 0.398803C18.4236 0.264747 18.4208 0.132103 18.418 -0.00195312H20.2567V-0.000542011Z" fill="white"/>
<path d="M55.4056 36.7995C57.5364 34.7449 58.6032 31.5642 58.6032 26.377V0.277013H52.3026V24.5708C52.3026 29.3177 51.7748 30.8954 50.1718 32.346C48.9357 33.3267 47.8082 33.7656 46.002 33.9123L46.6962 39.736C50.0321 39.736 53.3214 38.8555 55.407 36.7995M79.6669 29.1131V0.277013H73.2647V28.9438C73.2647 33.0967 72.2557 33.664 70.6414 33.664C69.2642 33.664 68.0661 33.0967 68.0661 29.1117V0.277013H61.6159V29.1131C61.6159 35.4857 65.1776 39.9985 70.671 39.9985C76.1645 39.9985 79.6655 35.4857 79.6655 29.1131M93.9022 28.083C93.9022 32.0609 92.2329 33.9928 90.136 33.9928C89.7084 33.9928 89.3203 33.9928 89.0099 33.8756V22.0576H90.0964C92.1157 22.0576 93.9022 24.1051 93.9022 28.0844M93.3194 10.8251C93.3194 14.0424 91.921 16.3835 90.0964 16.3835H89.0099V5.96662C89.3203 5.79165 89.786 5.73238 90.3688 5.73238C92.4262 5.73238 93.3194 7.9563 93.3194 10.8223M99.0302 9.94456C99.0302 7.19429 98.3684 4.56257 96.7823 2.80714C94.7108 0.467513 92.0226 -0.000976562 89.2455 -0.000976562C86.7775 -0.000976562 84.8753 -0.000976562 82.6782 0.205046V39.4326C84.0004 39.7247 85.8518 39.9011 88.056 39.9011C93.0358 39.9011 96.033 38.497 97.7969 35.9232C99.208 33.9928 100.001 31.4175 100.001 28.2001C100.001 23.8116 98.1934 20.0679 94.7559 18.781V18.5467C97.6657 16.8505 99.0316 13.4568 99.0316 9.94597" fill="white"/>
</g>
<defs>
<clipPath id="clip0_614_20395">
<rect width="195" height="40" fill="white"/>
</clipPath>
</defs>
</svg>
