<svg class="icon" viewBox="0 0 100 20" xmlns="http://www.w3.org/2000/svg">
<g fill-rule="evenodd">
<path d="M29.491 3.07V.13h-9.008v5.378h1.802V19.91h7.206V5.508h3.434V19.91h9.139v-5.344h-1.975V5.344c0-1.217 0-2.808-.91-3.86C38.115.17 36.398.132 35.072.132h-2.49l-3.09 2.94z" fill="#00644F" fill-rule="nonzero"></path>
<path d="M60.663 11.428V4.834c0-3.822-1.338-4.703-5.372-4.703h-7.464c-1.244 0-3.218 0-4.165 1.891-.512 1.007-.512 2.349-.512 3.61V15c0 3.988 1.328 4.91 5.104 4.91h7.887c1.161 0 2.32 0 3.39-1.05 1.071-1.051 1.117-2.307 1.117-3.563v-2.4h-6.855v2.246h-3.264v-3.715h10.134zm-10.134-6.55h3.264v2.77h-3.264v-2.77z" fill="#00644F"></path>
<path d="m74.118.13-1.286 2.308c-.523.89-.942 1.835-1.25 2.817a9.349 9.349 0 0 0-1.028-2.354L68.971.13h-6.694v5.377h2.06l2.957 4.406-2.958 4.664h-2.06v5.345h6.777l1.246-2.14c.522-.87.952-1.788 1.283-2.741.253.65.557 1.279.91 1.882l1.63 2.97h6.69v-5.345H78.93l-3.1-4.635 2.875-4.406h2.1V.13h-6.686z" fill="#00644F" fill-rule="nonzero"></path>
<path d="M99.994 11.428V4.834c0-3.822-1.329-4.703-5.36-4.703h-7.467c-1.244 0-3.218 0-4.162 1.891-.503 1.007-.503 2.349-.503 3.62V15c0 3.988 1.331 4.91 5.108 4.91h7.886c1.155 0 2.317 0 3.388-1.05 1.07-1.051 1.116-2.307 1.116-3.563v-2.4h-6.882v2.246h-3.249v-3.715h10.125zm-10.125-6.55h3.249v2.77h-3.249v-2.77z" fill="#00644F"></path>
<path d="M7.298 0h9.339v9.142H7.298zM.027 0H5.66v5.514H.027z" fill="#729689" fill-rule="nonzero"></path>
<path d="M0 7.203h5.687v5.567H0z" fill="#A2B7AD" fill-rule="nonzero"></path>
<path d="M7.252 10.76h9.43v9.231h-9.43z" fill="#3C7A69" fill-rule="nonzero"></path>
<path d="M0 14.43h5.69V20H0z" fill="#D1DAD4" fill-rule="nonzero"></path>
</g>
</svg>