<?xml version="1.0" encoding="utf-8"?>
<!-- Generator: Adobe Illustrator 19.0.0, SVG Export Plug-In . SVG Version: 6.00 Build 0)  -->
<svg version="1.1" id="layer" xmlns="http://www.w3.org/2000/svg" xmlns:xlink="http://www.w3.org/1999/xlink" x="0px" y="0px"
	 viewBox="-153 -46 652 652" style="enable-background:new -153 -46 652 652;" xml:space="preserve">
<style type="text/css">
	.st0{fill:#231815;}
	.st1{fill:#2778BD;}
	.st2{fill-rule:evenodd;clip-rule:evenodd;fill:#2778BD;}
</style>
<g>
	<path class="st0" d="M-128.4,335.4V298h4v11.6c2.3-0.9,5-1.6,7.7-1.6c7.2,0,11.3,4.7,11.3,13.2c0,11.6-6.4,15.5-13.3,15.5
		C-124.8,336.8-127.1,335.8-128.4,335.4 M-124.4,312.8v20c1.3,0.3,2.8,0.7,5.8,0.7c6.1,0,9.1-5.1,9.1-11.3c0-5.7-1.3-10.8-7.9-10.8
		C-119.8,311.3-122.5,312.1-124.4,312.8"/>
	<path class="st0" d="M-91.7,308.6h4v3.7c1.3-2.1,4-4.3,7.9-4.3c1.6,0,2.7,0.3,3.2,0.5l-0.7,3.4c-0.9-0.2-1.7-0.4-3.3-0.4
		c-3.4,0-5.9,2.4-7.2,4.4v20.4h-4V308.6z"/>
	<path class="st0" d="M-65.4,331.3v-22.7h4v21.7c0,2.1,0.9,3.2,2.7,3.2c0.4,0,0.8,0,1.2-0.1l0.1,3.2c-1,0.2-2,0.3-3.1,0.3
		C-63.5,336.8-65.4,335-65.4,331.3 M-65.3,297.6h3.9v4.7h-3.9V297.6z"/>
	<path class="st0" d="M-44.9,308.6h4v3.2c2.9-2.1,5.6-3.9,9.9-3.9c7.9,0,8.4,5.9,8.4,10.6v17.9h-3.9v-17.1c0-4.8-0.8-7.8-5.5-7.8
		c-3.6,0-6.4,1.7-8.9,3.4v21.5h-4V308.6z"/>
	<path class="st0" d="M-7,346.5l0.8-3.6c2.4,0.8,5.2,1.5,8.1,1.5c4.1,0,7.6-1.3,7.6-7.3v-2.8c-2,1.6-3.6,2.3-6.8,2.3
		c-5.2,0-11.8-2-11.8-13.6c0-10.8,5.8-15.2,13.7-15.2c2.6,0,6,0.5,8.8,1.2v29c0,6.8-4.6,10-11.8,10C-1.4,348-4.9,347.4-7,346.5
		 M9.4,330.9v-18.8c-0.7-0.2-2.6-0.8-5.1-0.8c-7.2,0-9.5,4.8-9.5,11.4c0,7.6,3.2,10.6,8.3,10.6C6.2,333.4,7.9,332.1,9.4,330.9"/>
	<path class="st0" d="M26.4,335.7l0.7-3.4c2.4,0.7,5,1.2,7.4,1.2c4.1,0,6.7-1.6,6.7-4.3c0-6.2-14-4.4-14-13.6c0-5.1,4.2-7.8,9.4-7.8
		c2.2,0,5,0.5,7,1.3l-0.9,3.2c-1.8-0.7-4.1-1.2-6.1-1.2c-3.8,0-5.4,1.8-5.4,4.1c0,6.4,13.9,4.5,13.9,13.7c0,5.9-5.9,8-10.8,8
		C31.6,336.9,28.5,336.4,26.4,335.7"/>
	<path class="st0" d="M75.8,335.7l0.7-3.4c2.4,0.7,5,1.2,7.4,1.2c4.1,0,6.7-1.6,6.7-4.3c0-6.2-14-4.4-14-13.6c0-5.1,4.2-7.8,9.4-7.8
		c2.2,0,5,0.5,7,1.3l-0.9,3.2c-1.8-0.7-4.1-1.2-6.1-1.2c-3.8,0-5.4,1.8-5.4,4.1c0,6.4,13.9,4.5,13.9,13.7c0,5.9-5.9,8-10.8,8
		C81,336.9,77.8,336.4,75.8,335.7"/>
	<path class="st0" d="M107.4,308.6h4v2.3c2.4-1.7,4.7-2.9,8.1-2.9c6.7,0,10.8,5,10.8,14c0,11.2-6.4,14.9-13.7,14.9
		c-1.8,0-4-0.3-5.3-0.5v11.1h-4V308.6z M126.3,322.2c0-5.1-1.6-10.8-7.6-10.8c-3.3,0-5.9,1.7-7.3,2.6V333c0.8,0.1,3.1,0.6,5.2,0.6
		C123.7,333.5,126.3,328.8,126.3,322.2"/>
	<path class="st0" d="M141.9,328.9c0-6.9,6.1-8.3,10.6-8.4l6.6-0.1v-3.6c0-4.4-2.1-5.5-6.5-5.5c-3,0-5.2,0.5-7.5,1.4l-0.9-3.2
		c2.1-0.9,5.2-1.7,9-1.7c6.1,0,9.8,2.2,9.8,7.7v15.4c0,2.1,1.7,2.5,3,2.5l-0.2,3.1c-0.3,0-0.8,0.1-1.1,0.1c-2.4,0-5-1-5.3-3.5
		c-1.4,1.1-4.5,3.7-9.3,3.7C145.2,336.8,141.9,334,141.9,328.9 M159.2,330.4v-7.2l-6.7,0.3c-4.3,0.1-6.7,2.1-6.7,5.3
		c0,3.2,2.3,4.7,5.3,4.7C154.2,333.5,157.1,331.9,159.2,330.4"/>
	<path class="st0" d="M177.9,323c0-10,5.1-15.2,13.2-15.2c3.5,0,6,0.9,7.4,1.7l-1.2,3.2c-1.1-0.5-3.4-1.4-6.1-1.4
		c-5.8,0-9.1,3.7-9.1,11.4c0,6.9,2.5,10.7,10.1,10.7c2.4,0,3.9-0.4,5.6-0.9l0.6,3.2c-1.7,0.6-3.6,1.1-6.7,1.1
		C182.4,336.9,177.9,332.5,177.9,323"/>
	<path class="st0" d="M209.4,323c0-10.8,5.3-15.2,12.1-15.2c7.1,0,10.3,4.6,10.3,13.9v1.5h-18.3c0.1,8.6,4.5,10.3,9.8,10.3
		c2.7,0,4.8-0.5,7.4-1.3l0.7,3.2c-2.1,0.9-5.2,1.5-8.8,1.5C214.5,336.9,209.4,333.6,209.4,323 M227.6,320.2c0-5.6-2-9.2-6.5-9.2
		c-4,0-7.1,3-7.6,9.2H227.6z"/>
	<path class="st0" d="M243.7,335.7l0.7-3.4c2.4,0.7,5,1.2,7.4,1.2c4.1,0,6.7-1.6,6.7-4.3c0-6.2-14-4.4-14-13.6
		c0-5.1,4.2-7.8,9.4-7.8c2.2,0,5,0.5,7,1.3l-0.9,3.2c-1.8-0.7-4.1-1.2-6.1-1.2c-3.8,0-5.4,1.8-5.4,4.1c0,6.4,13.9,4.5,13.9,13.7
		c0,5.9-5.9,8-10.8,8C248.9,336.9,245.7,336.4,243.7,335.7"/>
	<path class="st0" d="M296.2,328.6V312h-4.1v-3.4h4.1v-5.7h3.9v5.7h8.7v3.4h-8.6v16.5c0,3.9,1.8,5,5,5c1.5,0,3.5-0.4,4.7-0.8
		l0.7,3.3c-1.4,0.5-4,1-5.9,1C299.5,336.9,296.2,335.1,296.2,328.6"/>
	<path class="st0" d="M319.8,322.7c0-9.6,5.2-14.9,12.9-14.9c7.9,0,12.1,5.3,12.1,14.4c0,10-5.4,14.6-12.7,14.6
		C324.5,336.9,319.8,331.8,319.8,322.7 M340.7,322.5c0-5.2-1.5-11.4-8.3-11.4c-6.8,0-8.5,6.1-8.5,11.4c0,5.7,2,11.1,8.5,11.1
		C339.1,333.6,340.7,328,340.7,322.5"/>
	<path class="st0" d="M377.5,331.3V298h4v32.2c0,2.1,0.9,3.2,2.7,3.2c0.4,0,0.8,0,1.2-0.1l0.2,3.2c-1,0.2-2,0.3-3.1,0.3
		C379.4,336.8,377.5,335,377.5,331.3"/>
	<path class="st0" d="M398,331.3v-22.7h4v21.7c0,2.1,0.9,3.2,2.7,3.2c0.4,0,0.8,0,1.2-0.1l0.2,3.2c-1,0.2-2,0.3-3.1,0.3
		C399.9,336.8,398,335,398,331.3 M398.1,297.6h3.9v4.7h-3.9V297.6z"/>
	<path class="st0" d="M419.9,311.8h-4.1v-3.3h4.1v-1.9c0-6.8,4-9.3,9-9.3c1.9,0,3.2,0.2,4.3,0.6l-0.7,3.2c-0.8-0.2-1.6-0.4-3.5-0.4
		c-3.5,0-5,1.6-5,5.8v1.9h6v3.3h-6v24.5h-4V311.8z"/>
	<path class="st0" d="M440.3,323c0-10.8,5.3-15.2,12.1-15.2c7.1,0,10.3,4.6,10.3,13.9v1.5h-18.3c0.1,8.6,4.5,10.3,9.8,10.3
		c2.7,0,4.8-0.5,7.4-1.3l0.7,3.2c-2.1,0.9-5.2,1.5-8.8,1.5C445.3,336.9,440.3,333.6,440.3,323 M458.5,320.2c0-5.6-2-9.2-6.5-9.2
		c-4,0-7.1,3-7.6,9.2H458.5z"/>
	<path class="st1" d="M239.9,204.8c1.2,0,2.2,0.8,2.5,2l2.6,12h-39.4c-1.4,0-2.5,1.1-2.5,2.5v8.4h38.2V242H203v8.4
		c0,1.4,1.1,2.5,2.5,2.5H245l-2.6,12c-0.3,1.1-1.3,2-2.5,2h-59.3c-5.6,0-10.2-4.6-10.2-10.2V215c0-5.6,4.6-10.2,10.2-10.2H239.9z"/>
	<path class="st1" d="M65.2,204.8c1.2,0,2.2,0.8,2.4,2l2.6,12H30.9c-1.4,0-2.6,1.1-2.6,2.5v8.4h38.2V242H28.3v8.4
		c0,1.4,1.1,2.5,2.6,2.5h39.4l-2.6,12c-0.2,1.1-1.2,2-2.4,2H5.9c-5.6,0-10.2-4.6-10.2-10.2V215c0-5.6,4.6-10.2,10.2-10.2H65.2z"/>
	<path class="st1" d="M408.8,218.3l-10,23.7h20.8L408.8,218.3z M402,204.8h32.2c1.1,0,1.9,0.7,2.4,1.6l28.2,60.6h-33.9l-5.8-12.7
		h-31.5l-5.4,12.7h-14.5l25.9-60.6C400,205.5,400.9,204.8,402,204.8"/>
	<rect x="-47.6" y="204.8" class="st2" width="32.6" height="62.1"/>
	<path class="st1" d="M-57.8,206.6l-1.8,12.8c-7.5-1.3-15.9-2.1-24.9-2.1c-14.2,0-17.5,1.3-17.5,5.9c0,3.1,2.5,4.6,6.7,5l19.6,1.7
		c11.4,1,20.7,6.3,20.7,18.1c0,11.4-9,17-14.7,18.3c-4.7,1.1-12.6,2-24.7,2c-12.8,0-26-1.2-35.9-3.3l1.8-12.8
		c7.5,1.3,17.7,2.1,26.6,2.1c13.3,0,18.6-0.7,18.6-6.5c0-3.4-3-4.7-7.1-5.1l-21.2-1.9c-11.3-1-19.8-7.4-19.8-17.7
		c0-14.7,12.4-20.1,38.8-20.1C-79.6,203.3-67.7,204.5-57.8,206.6"/>
	<path class="st1" d="M160.8,229.8v34.5c-10.5,2.3-25.2,4.2-40.5,4.2c-38.8,0-44.6-14.8-44.6-32.7c0-14.2,5.5-32.5,44.6-32.5
		c12.8,0,26,1.2,35.9,3.3l-1.8,12.8c-7.5-1.3-16.2-2.1-25.2-2.1c0,0-22.3-1.9-22.3,18.9c0,18.6,10.9,19.6,16.1,19.6
		c2.4,0,5.3-0.4,7.8-0.7V240h-7.8v-10.2H160.8z"/>
	<rect x="336" y="204.8" class="st2" width="32.6" height="62.1"/>
	<path class="st1" d="M325.3,204.8V263c0,2.2-1.9,4-4.1,4H287l-20.3-42.5V267H253v-58.1c0-2.2,1.8-4.1,4.1-4.1h34.3l20.2,42.4v-42.4
		H325.3z"/>
	<path class="st0" d="M468.8,211.6c0,4.1-3.3,7.4-7.4,7.4c-4.1,0-7.4-3.3-7.4-7.4c0-4.1,3.3-7.3,7.5-7.3
		C465.6,204.2,468.8,207.5,468.8,211.6 M456.8,207.6c-0.9,1.1-1.5,2.5-1.5,3.9c0,3.5,2.7,6.2,6.2,6.2c3.4,0,6.2-2.8,6.2-6.2
		c0-3.4-2.8-6.2-6.1-6.2C459.6,205.4,458,206.2,456.8,207.6 M464.5,215.9H463l-2.2-3.2v3.2h-1.2v-8.5h1.4c0.9,0,1.4,0.1,1.9,0.5
		c0.6,0.4,0.9,1.1,0.9,2c0,1.3-0.7,2.1-2,2.3L464.5,215.9z M461.2,211c0.9,0,1.4-0.4,1.4-1.2c0-0.8-0.5-1.2-1.5-1.2h-0.3v2.5H461.2z
		"/>
</g>
</svg>
