<?xml version="1.0" encoding="UTF-8" standalone="no"?>
<!-- Created with Inkscape (http://www.inkscape.org/) -->

<svg
   xmlns:dc="http://purl.org/dc/elements/1.1/"
   xmlns:cc="http://creativecommons.org/ns#"
   xmlns:rdf="http://www.w3.org/1999/02/22-rdf-syntax-ns#"
   xmlns:svg="http://www.w3.org/2000/svg"
   xmlns="http://www.w3.org/2000/svg"
   version="1.1"
   width="892.91339"
   height="283.81888"
   id="svg26901">
  <defs
     id="defs26903">
    <clipPath
       id="clipPath26690">
      <path
         d="m 262.806,13.4556 147.7991,0 0,60.858 -147.7991,0 0,-60.858 z"
         id="path26692" />
    </clipPath>
    <clipPath
       id="clipPath26698">
      <path
         d="m 269.326,66.3249 0,-38.1713 122.513,0 0,38.1713"
         id="path26700" />
    </clipPath>
  </defs>
  <metadata
     id="metadata26906">
    <rdf:RDF>
      <cc:Work
         rdf:about="">
        <dc:format>image/svg+xml</dc:format>
        <dc:type
           rdf:resource="http://purl.org/dc/dcmitype/StillImage" />
        <dc:title></dc:title>
      </cc:Work>
    </rdf:RDF>
  </metadata>
  <g
     transform="translate(56.367835,-380.9717)"
     id="layer1">
    <g
       transform="matrix(7.2496709,0,0,-7.2496709,-2005.3494,865.35016)"
       id="g26686">
      <g
         clip-path="url(#clipPath26690)"
         id="g26688">
        <g
           id="g26694">
          <g
             clip-path="url(#clipPath26698)"
             id="g26696">
            <path
               d="m 334.3638,50.0471 10.3304,15.8928 -5.728,0 -10.3308,-15.8928 5.7284,0"
               id="path26702"
               style="fill:#231f20;fill-opacity:1;fill-rule:nonzero;stroke:none" />
            <path
               d="m 334.3638,50.0471 10.3304,15.8928 -5.728,0 -10.3308,-15.8928 5.7284,0 z"
               id="path26704"
               style="fill:none;stroke:#231f20;stroke-width:0.7701;stroke-linecap:butt;stroke-linejoin:miter;stroke-miterlimit:3.86369991;stroke-opacity:1;stroke-dasharray:none" />
            <path
               d="m 319.3363,35.7407 -4.6816,-7.2022 5.7284,0 4.6816,7.2022 -5.7284,0"
               id="path26706"
               style="fill:#231f20;fill-opacity:1;fill-rule:nonzero;stroke:none" />
            <path
               d="m 319.3363,35.7407 -4.6816,-7.2022 5.7284,0 4.6816,7.2022 -5.7284,0 z"
               id="path26708"
               style="fill:none;stroke:#231f20;stroke-width:0.7701;stroke-linecap:butt;stroke-linejoin:miter;stroke-miterlimit:3.86369991;stroke-opacity:1;stroke-dasharray:none" />
            <path
               d="m 346.5771,50.0471 10.3305,15.8928 -11.5914,0 -10.3298,-15.8928 11.5907,0"
               id="path26710"
               style="fill:#00adef;fill-opacity:1;fill-rule:nonzero;stroke:none" />
            <path
               d="m 346.5771,50.0471 10.3305,15.8928 -11.5914,0 -10.3298,-15.8928 11.5907,0 z"
               id="path26712"
               style="fill:none;stroke:#00adef;stroke-width:0.7701;stroke-linecap:butt;stroke-linejoin:miter;stroke-miterlimit:3.86369991;stroke-opacity:1;stroke-dasharray:none" />
            <path
               d="m 325.6873,35.7407 -4.6817,-7.2022 11.5911,0 4.6816,7.2022 -11.591,0"
               id="path26714"
               style="fill:#00adef;fill-opacity:1;fill-rule:nonzero;stroke:none" />
            <path
               d="m 325.6873,35.7407 -4.6817,-7.2022 11.5911,0 4.6816,7.2022 -11.591,0 z"
               id="path26716"
               style="fill:none;stroke:#00adef;stroke-width:0.7701;stroke-linecap:butt;stroke-linejoin:miter;stroke-miterlimit:3.86369991;stroke-opacity:1;stroke-dasharray:none" />
            <path
               d="m 363.3165,50.0471 10.3297,15.8928 -16.2626,0 -10.3312,-15.8928 16.2641,0"
               id="path26718"
               style="fill:#ed1c24;fill-opacity:1;fill-rule:nonzero;stroke:none" />
            <path
               d="m 363.3165,50.0471 10.3297,15.8928 -16.2626,0 -10.3312,-15.8928 16.2641,0 z"
               id="path26720"
               style="fill:none;stroke:#ed1c24;stroke-width:0.7701;stroke-linecap:butt;stroke-linejoin:miter;stroke-miterlimit:3.86369991;stroke-opacity:1;stroke-dasharray:none" />
            <path
               d="m 337.7534,35.7407 -4.6809,-7.2022 16.2634,0 4.6804,7.2022 -16.2629,0"
               id="path26722"
               style="fill:#ed1c24;fill-opacity:1;fill-rule:nonzero;stroke:none" />
            <path
               d="m 337.7534,35.7407 -4.6809,-7.2022 16.2634,0 4.6804,7.2022 -16.2629,0 z"
               id="path26724"
               style="fill:none;stroke:#ed1c24;stroke-width:0.7701;stroke-linecap:butt;stroke-linejoin:miter;stroke-miterlimit:3.86369991;stroke-opacity:1;stroke-dasharray:none" />
            <path
               d="m 380.7991,50.0471 10.3304,15.8928 -17.1828,0 -10.3306,-15.8928 17.183,0"
               id="path26726"
               style="fill:#fddd04;fill-opacity:1;fill-rule:nonzero;stroke:none" />
            <path
               d="m 380.7991,50.0471 10.3304,15.8928 -17.1828,0 -10.3306,-15.8928 17.183,0 z"
               id="path26728"
               style="fill:none;stroke:#fddd04;stroke-width:0.7701;stroke-linecap:butt;stroke-linejoin:miter;stroke-miterlimit:3.86369991;stroke-opacity:1;stroke-dasharray:none" />
            <path
               d="m 354.3174,35.7407 -4.6818,-7.2022 17.1836,0 4.6804,7.2022 -17.1822,0"
               id="path26730"
               style="fill:#fddd04;fill-opacity:1;fill-rule:nonzero;stroke:none" />
            <path
               d="m 354.3174,35.7407 -4.6818,-7.2022 17.1836,0 4.6804,7.2022 -17.1822,0 z"
               id="path26732"
               style="fill:none;stroke:#fddd04;stroke-width:0.7701;stroke-linecap:butt;stroke-linejoin:miter;stroke-miterlimit:3.86369991;stroke-opacity:1;stroke-dasharray:none" />
            <path
               d="m 272.8733,39.4313 -0.5182,-1.8071 -2.9138,0 3.1521,10.5063 4.2584,0 3.1941,-10.5063 -2.8577,0 -0.5465,1.8071 -3.7684,0 z m 1.9052,6.5981 -0.0279,0 -1.2747,-4.5528 2.6056,0 -1.303,4.5528"
               id="path26734"
               style="fill:#231f20;fill-opacity:1;fill-rule:nonzero;stroke:none" />
            <path
               d="m 289.8099,48.1305 0,-7.0044 c 0,-2.8016 -1.3168,-3.586 -4.3986,-3.586 -4.203,0 -4.6509,1.0647 -4.6509,3.586 l 0,7.0044 2.8015,0 0,-6.9479 c 0,-1.1908 0.6724,-1.2045 1.8494,-1.2045 1.1907,0 1.5967,0.0977 1.5967,1.3305 l 0,6.8219 2.8019,0"
               id="path26736"
               style="fill:#231f20;fill-opacity:1;fill-rule:nonzero;stroke:none" />
            <path
               d="m 296.324,44.0123 c 3.11,-0.2245 3.8803,-0.6164 3.8803,-3.0261 0,-1.7367 0.0702,-3.4461 -4.5528,-3.4461 -2.6755,0 -4.4547,0.0565 -4.4547,3.5026 l 2.6896,0 c 0,-1.0929 0.3923,-1.2052 1.7651,-1.2052 1.3168,0 1.7513,0.0841 1.7513,0.9669 0,0.9105 -0.1543,0.8967 -1.471,0.9807 l -0.6164,0.042 c -2.5918,0.1818 -4.1048,0.1681 -4.1048,3.1796 0,3.0123 1.6952,3.2085 4.4409,3.2085 2.2974,0 4.2587,-0.0419 4.2587,-2.9426 l 0,-0.4339 -2.6895,0 c 0,1.0791 -0.4484,1.0791 -1.5692,1.0791 -1.513,0 -1.6391,-0.3085 -1.6391,-0.8966 0,-0.8409 0.4064,-0.8691 1.1488,-0.9249 l 1.1628,-0.084"
               id="path26738"
               style="fill:#231f20;fill-opacity:1;fill-rule:nonzero;stroke:none" />
            <path
               d="m 306.214,37.6242 -2.8019,0 0,8.0692 -2.6895,0 0,2.4371 8.3212,0 0,-2.4371 -2.8298,0 0,-8.0692"
               id="path26740"
               style="fill:#231f20;fill-opacity:1;fill-rule:nonzero;stroke:none" />
            <path
               d="m 309.8423,48.1305 5.4071,0 c 2.4238,-0.0413 3.6145,-0.5605 3.6145,-3.1796 0,-1.7513 0,-2.7739 -1.9892,-3.236 l 0,-0.1123 c 1.1487,-0.042 1.891,-0.6728 1.891,-1.8635 l 0,-2.1149 -2.8018,0 0,1.471 c 0.0282,0.7844 -0.3082,1.3167 -1.1487,1.3167 l -2.1714,0 0,-2.7877 -2.8015,0 0,10.5063 z m 4.9729,-5.2807 c 1.2048,0 1.1628,0.4477 1.1628,1.639 0,0.9387 -0.2383,1.2046 -1.1628,1.2046 l -2.1714,0 0,-2.8436 2.1714,0"
               id="path26742"
               style="fill:#231f20;fill-opacity:1;fill-rule:nonzero;stroke:none" />
            <path
               d="m 319.9003,41.3926 0,2.9696 c 0,3.2367 2.0172,3.853 4.8611,3.853 2.8438,0 4.8609,-0.6163 4.8609,-3.853 l 0,-2.9696 c 0,-3.2361 -2.0171,-3.8525 -4.8609,-3.8525 -2.8439,0 -4.8611,0.6164 -4.8611,3.8525 z m 6.8365,0.3085 0,2.367 c 0,1.555 -0.5186,1.7093 -1.9754,1.7093 -1.4569,0 -1.9332,-0.1543 -1.9752,-1.7093 l 0,-2.367 c 0.042,-1.5695 0.5183,-1.723 1.9752,-1.723 1.4568,0 1.9754,0.1535 1.9754,1.723"
               id="path26744"
               style="fill:#231f20;fill-opacity:1;fill-rule:nonzero;stroke:none" />
            <path
               d="m 335.5897,37.6242 -2.8016,0 0,8.0692 -2.69,0 0,2.4371 8.3213,0 0,-2.4371 -2.8297,0 0,-8.0692"
               id="path26746"
               style="fill:#231f20;fill-opacity:1;fill-rule:nonzero;stroke:none" />
            <path
               d="m 348.5757,37.6242 -2.8011,0 0,4.1182 -3.6565,0 0,-4.1182 -2.8021,0 0,10.5063 2.8021,0 0,-3.9502 3.6565,0 0,3.9502 2.8011,0 0,-10.5063"
               id="path26748"
               style="fill:#231f20;fill-opacity:1;fill-rule:nonzero;stroke:none" />
            <path
               d="m 353.1566,43.9138 4.483,0 0,-1.9469 -4.483,0 0,-2.0453 4.8758,0 0,-2.2974 -7.6775,0 0,10.5063 7.5788,0 0,-2.2974 -4.7771,0 0,-1.9193"
               id="path26750"
               style="fill:#231f20;fill-opacity:1;fill-rule:nonzero;stroke:none" />
            <path
               d="m 359.7552,48.1305 5.4068,0 c 2.4238,-0.0413 3.6148,-0.5605 3.6148,-3.1796 0,-1.7513 0,-2.7739 -1.9887,-3.236 l 0,-0.1123 c 1.1481,-0.042 1.89,-0.6728 1.89,-1.8635 l 0,-2.1149 -2.8011,0 0,1.471 c 0.0282,0.7844 -0.3082,1.3167 -1.1487,1.3167 l -2.1714,0 0,-2.7877 -2.8017,0 0,10.5063 z m 4.9731,-5.2807 c 1.2044,0 1.1621,0.4477 1.1621,1.639 0,0.9387 -0.2383,1.2046 -1.1621,1.2046 l -2.1714,0 0,-2.8436 2.1714,0"
               id="path26752"
               style="fill:#231f20;fill-opacity:1;fill-rule:nonzero;stroke:none" />
            <path
               d="m 373.0073,37.6242 -2.8024,0 0,10.5063 4.4413,0 2.0035,-6.5975 0.098,0 1.9048,6.5975 4.5534,0 0,-10.5063 -2.8017,0 0.2799,8.0554 -0.098,0 -2.6614,-8.0554 -2.4238,0 -2.6896,8.0554 -0.0846,0 0.2806,-8.0554"
               id="path26754"
               style="fill:#231f20;fill-opacity:1;fill-rule:nonzero;stroke:none" />
            <path
               d="m 269.326,33.5307 2.5739,0 c 1.4882,0 2.1208,-0.5289 2.1208,-1.9676 l 0,-1.2478 c 0,-1.1005 -0.3165,-2.0736 -1.9483,-2.0736 l -2.7464,0 0,5.289 z m 2.7464,-4.4212 c 0.6973,0 0.9132,0.6129 0.9132,1.2058 l 0,1.2478 c 0,0.8815 -0.2948,1.0999 -1.0857,1.0999 l -1.5385,0 0,-3.5535 1.711,0"
               id="path26756"
               style="fill:#231f20;fill-opacity:1;fill-rule:nonzero;stroke:none" />
            <path
               d="m 277.2127,28.7072 -0.0218,0 c -0.1797,-0.4938 -0.733,-0.5075 -1.1717,-0.5075 -0.8554,0 -1.409,0.1763 -1.409,1.1776 0,0.8884 0.4745,1.1349 1.409,1.1349 0.46,0 0.9131,-0.0069 1.1287,-0.4228 l 0.0286,0 0,0.4793 c 0,0.5999 -0.0503,0.8113 -0.805,0.8113 -0.3953,0 -0.7118,-0.0351 -0.7118,-0.5152 l -0.9059,0 c 0,1.0792 0.7551,1.1212 1.6177,1.1212 1.2079,0 1.711,-0.1832 1.711,-1.4242 l 0,-2.3201 -0.906,0 0.0362,0.4655 z m -1.8836,4.4358 0,-0.6205 0.7118,0 0,0.6205 -0.7118,0 z m 0.187,-3.7657 c 0,-0.522 0.2156,-0.5716 0.8268,-0.5716 0.4813,0 0.8336,0.0427 0.8336,0.5716 0,0.5144 -0.3881,0.5289 -0.8336,0.5289 -0.4604,0 -0.8268,0 -0.8268,-0.5289 z m 1.2796,3.7657 0,-0.6205 0.7117,0 0,0.6205 -0.7117,0"
               id="path26758"
               style="fill:#231f20;fill-opacity:1;fill-rule:nonzero;stroke:none" />
            <path
               d="m 279.8654,31.944 0,-0.5358 0.0286,0 c 0.2015,0.4724 0.7117,0.5778 1.1863,0.5778 0.4744,0 1.0209,-0.1198 1.1215,-0.6556 l 0.0289,0 c 0.1724,0.5151 0.69,0.6556 1.1931,0.6556 0.9779,0 1.3012,-0.3313 1.3012,-1.241 l 0,-2.5033 -0.9056,0 0,2.4186 c -0.0216,0.4655 -0.1367,0.6488 -0.6328,0.6488 -0.7332,0 -0.8771,-0.3244 -0.8771,-0.9801 l 0,-2.0873 -0.9055,0 0,2.4186 c -0.0218,0.4655 -0.1368,0.6488 -0.633,0.6488 -0.7331,0 -0.877,-0.3244 -0.877,-0.9801 l 0,-2.0873 -0.9059,0 0,3.7023 0.8773,0"
               id="path26760"
               style="fill:#231f20;fill-opacity:1;fill-rule:nonzero;stroke:none" />
            <path
               d="m 286.508,31.944 0,-0.5358 0.029,0 c 0.201,0.4724 0.7114,0.5778 1.1858,0.5778 0.4746,0 1.021,-0.1198 1.1219,-0.6556 l 0.0286,0 c 0.1725,0.5151 0.69,0.6556 1.1934,0.6556 0.9776,0 1.3012,-0.3313 1.3012,-1.241 l 0,-2.5033 -0.9059,0 0,2.4186 c -0.0213,0.4655 -0.1367,0.6488 -0.6325,0.6488 -0.7334,0 -0.877,-0.3244 -0.877,-0.9801 l 0,-2.0873 -0.906,0 0,2.4186 c -0.0217,0.4655 -0.1367,0.6488 -0.6326,0.6488 -0.7334,0 -0.8769,-0.3244 -0.8769,-0.9801 l 0,-2.0873 -0.906,0 0,3.7023 0.877,0"
               id="path26762"
               style="fill:#231f20;fill-opacity:1;fill-rule:nonzero;stroke:none" />
            <path
               d="m 294.5599,30.9358 c 0,0.4442 -0.2372,0.4442 -0.7189,0.4442 -0.4817,0 -0.8127,0 -0.8127,-0.4869 0,-0.3664 0.1009,-0.3809 0.8915,-0.416 0.8915,-0.042 1.6824,0.0214 1.6824,-1.1776 0,-1.0013 -0.805,-1.0998 -1.7612,-1.0998 -1.0282,0 -1.7182,0 -1.7182,1.2059 l 0.9055,0 c 0.0145,-0.5365 0.1439,-0.5999 0.8127,-0.5999 0.5392,0 0.8554,-0.0137 0.8554,0.4938 0,0.3243 -0.0214,0.4869 -0.9346,0.5006 -1.3873,0.0214 -1.639,0.2046 -1.639,1.1494 0,1.0159 0.7475,1.0365 1.7182,1.0365 0.7403,0 1.6246,-0.0138 1.6246,-1.0502 l -0.9057,0"
               id="path26764"
               style="fill:#231f20;fill-opacity:1;fill-rule:nonzero;stroke:none" />
            <path
               d="m 295.8106,31.944 0.4745,0 0,0.8395 0.9059,0 0,-0.8395 1.4449,0 0,-0.677 -1.4449,0 0,-1.8972 c 0.007,-0.3382 0.007,-0.4931 0.3881,-0.4931 0.5107,0 0.4531,0.3945 0.4531,0.7823 l 0.7979,0 c 0.0144,-1.1212 -0.2731,-1.4593 -1.251,-1.4593 -0.9921,0 -1.294,0.2252 -1.294,1.1631 l 0,1.9042 -0.4745,0 0,0.677"
               id="path26766"
               style="fill:#231f20;fill-opacity:1;fill-rule:nonzero;stroke:none" />
            <path
               d="m 302.748,30.0894 c 0,-1.4318 -0.2012,-1.8897 -1.7758,-1.8897 -1.5743,0 -1.7754,0.4579 -1.7754,1.8897 0,1.4386 0.2011,1.8966 1.7754,1.8966 1.5746,0 1.7758,-0.458 1.7758,-1.8966 z m -2.6456,-0.0069 c 0,-0.9876 0.0647,-1.2058 0.8698,-1.2058 0.8054,0 0.8701,0.2182 0.8701,1.2058 0,1.0014 -0.0647,1.2266 -0.8701,1.2266 -0.8051,0 -0.8698,-0.2252 -0.8698,-1.2266"
               id="path26768"
               style="fill:#231f20;fill-opacity:1;fill-rule:nonzero;stroke:none" />
            <path
               d="m 305.5229,31.267 -0.9201,0 0,-3.0253 -0.9058,0 0,3.0253 -0.5321,0 0,0.677 0.5321,0 0,0.3243 c 0,0.8884 0.2154,1.2624 1.2078,1.2624 l 0.5896,0 0,-0.677 -0.2735,0 c -0.6181,0.0214 -0.6181,-0.2259 -0.6181,-0.6838 l 0,-0.2259 0.9201,0 0,-0.677"
               id="path26770"
               style="fill:#231f20;fill-opacity:1;fill-rule:nonzero;stroke:none" />
            <path
               d="m 308.1037,31.267 -0.9204,0 0,-3.0253 -0.9056,0 0,3.0253 -0.532,0 0,0.677 0.532,0 0,0.3243 c 0,0.8884 0.2156,1.2624 1.2076,1.2624 l 0.5895,0 0,-0.677 -0.273,0 c -0.6185,0.0214 -0.6185,-0.2259 -0.6185,-0.6838 l 0,-0.2259 0.9204,0 0,-0.677"
               id="path26772"
               style="fill:#231f20;fill-opacity:1;fill-rule:nonzero;stroke:none" />
            <path
               d="m 311.95,29.4193 c 0,-1.1638 -0.6832,-1.2196 -1.7617,-1.2196 -1.4448,0 -1.7396,0.4511 -1.7396,1.8828 0,1.3257 0.2156,1.9035 1.7396,1.9035 1.553,0 1.7617,-0.4442 1.7617,-2.0591 l -2.5953,0 c 0,-0.7968 0.0214,-1.0502 0.8336,-1.0502 0.5034,0 0.8557,-0.0076 0.8557,0.5426 l 0.906,0 z m -0.906,1.0723 c 0,0.761 -0.115,0.8175 -0.8557,0.8175 -0.7833,0 -0.8336,-0.1619 -0.8336,-0.8175 l 1.6893,0"
               id="path26774"
               style="fill:#231f20;fill-opacity:1;fill-rule:nonzero;stroke:none" />
          </g>
        </g>
      </g>
    </g>
  </g>
</svg>
