<?xml version="1.0" encoding="UTF-8" standalone="no"?>
<!-- Created with Inkscape (http://www.inkscape.org/) -->

<svg
   version="1.1"
   id="svg1"
   width="560"
   height="241.33333"
   viewBox="0 0 560 241.33333"
   sodipodi:docname="FEAL.eps"
   xmlns:inkscape="http://www.inkscape.org/namespaces/inkscape"
   xmlns:sodipodi="http://sodipodi.sourceforge.net/DTD/sodipodi-0.dtd"
   xmlns="http://www.w3.org/2000/svg"
   xmlns:svg="http://www.w3.org/2000/svg">
  <defs
     id="defs1" />
  <sodipodi:namedview
     id="namedview1"
     pagecolor="#ffffff"
     bordercolor="#000000"
     borderopacity="0.25"
     inkscape:showpageshadow="2"
     inkscape:pageopacity="0.0"
     inkscape:pagecheckerboard="0"
     inkscape:deskcolor="#d1d1d1">
    <inkscape:page
       x="0"
       y="0"
       inkscape:label="1"
       id="page1"
       width="560"
       height="241.33333"
       margin="0"
       bleed="0" />
  </sodipodi:namedview>
  <g
     id="g1"
     inkscape:groupmode="layer"
     inkscape:label="1">
    <path
       id="path1"
       d="M 222.352,1784.95 H 3975.73 c 109.67,0 199.4,-101.4 199.4,-225.32 V 249.289 c 0,-123.934 -89.73,-225.3202 -199.4,-225.3202 H 222.352 C 112.68,23.9688 22.9492,125.355 22.9492,249.289 V 1559.63 c 0,123.92 89.7308,225.32 199.4028,225.32"
       style="fill:#ffffff;fill-opacity:1;fill-rule:evenodd;stroke:none"
       transform="matrix(0.13333333,0,0,-0.13333333,0,241.33333)" />
    <path
       id="path2"
       d="M 222.352,1784.95 H 3975.73 c 109.67,0 199.4,-101.4 199.4,-225.32 V 249.289 c 0,-123.934 -89.73,-225.3202 -199.4,-225.3202 H 222.352 C 112.68,23.9688 22.9492,125.355 22.9492,249.289 V 1559.63 c 0,123.92 89.7308,225.32 199.4028,225.32 z"
       style="fill:none;stroke:#ed1c24;stroke-width:39.9997;stroke-linecap:butt;stroke-linejoin:miter;stroke-miterlimit:22.9256;stroke-dasharray:none;stroke-opacity:1"
       transform="matrix(0.13333333,0,0,-0.13333333,0,241.33333)" />
    <path
       id="path3"
       d="m 327.09,193.016 c -96.18,0.152 -144.293,39.804 -144.293,119.293 v 437.273 437.278 285.25 c 0,31.8 14.699,59.6 44.082,83.44 14.695,11.91 30.41,20.85 47.109,26.81 16.696,5.94 34.399,8.93 53.102,8.92 L 932.121,1591 c 37.406,-0.02 65.473,-7.98 84.169,-23.89 18.7,-15.9 28.06,-36.14 28.06,-60.7 0,-23.13 -8.91,-42.64 -26.72,-58.53 -17.814,-15.89 -44.548,-23.82 -80.165,-23.81 l -299.977,0.15 c -19.586,0.01 -39.191,0.02 -58.781,0.03 -19.594,0 -76.168,0.01 -86.859,0.02 -57,0.02 -92.184,-4.66 -105.543,-14.05 -13.36,-9.39 -20.043,-35.78 -20.043,-79.12 v -119.89 36.24 c 0,15.88 0,-27.15 0,-43.06 0,-15.89 0,9.96 0,1.29 0,-46.25 0.742,-167.78 11.426,-177.9 10.683,-10.12 47.355,-13.87 100.8,-13.89 l 461.653,-0.2 c 32.062,-0.01 57.464,-8.34 76.149,-24.96 18.69,-16.613 28.06,-35.781 28.06,-57.464 0,-23.118 -9.36,-42.993 -28.06,-59.602 -18.696,-16.609 -45.001,-24.91 -78.825,-24.898 l -112.227,0.047 c -26.695,0.015 -13.172,0.027 -31.879,0.035 -18.703,0.007 -32.511,0.015 -41.418,0.015 -51.656,0.024 -200.441,-4.297 -212.914,-12.965 -12.468,-8.668 -18.703,-32.535 -18.703,-71.535 V 312.109 c 0,-39 -13.371,-68.656 -40.078,-88.867 -26.707,-20.211 -62.359,-30.375 -106.883,-30.301 l -46.273,0.075"
       style="fill:#ed1c24;fill-opacity:1;fill-rule:evenodd;stroke:none"
       transform="matrix(0.13333333,0,0,-0.13333333,0,241.33333)" />
    <path
       id="path4"
       d="M 1162.61,310.836 V 1487.3 c 0,32.26 12.18,60.48 36.54,84.67 24.36,24.19 52.05,36.28 83.05,36.28 h 649.1 c 31,0 54.26,-8.43 69.76,-25.29 15.5,-16.85 23.26,-37.01 23.26,-60.1 0,-24.93 -7.39,-45.45 -22.15,-61.57 -14.76,-16.13 -36.92,-24.2 -66.44,-24.2 H 1506.5 c -23.62,0 -43.19,0 -58.69,0 -15.51,0 -2.78,0 -10.17,0 -45.76,0 -73.08,-5.13 -81.94,-15.39 -8.85,-10.26 -13.29,-39.58 -13.29,-87.96 v -149.9 c 0,-16.12 0,-32.25 0,-48.38 0,-16.12 0,-28.58 0,-37.38 0,-46.91 4.44,-75.5 13.29,-85.76 8.86,-10.26 35.44,-15.39 79.73,-15.39 h 502.52 c 26.57,0 47.61,-8.434 63.11,-25.293 15.5,-16.856 23.26,-36.282 23.26,-58.27 0,-23.461 -7.76,-43.617 -23.26,-60.476 -15.5,-16.856 -37.28,-25.286 -65.33,-25.286 h -117.01 c -23.62,0 -84.98,0 -100.49,0 -15.5,0 -120.16,0 -127.55,0 -45.76,0 -73.08,-5.132 -81.94,-15.394 -8.85,-10.262 -13.28,-39.586 -13.28,-87.961 V 546.129 c 0,-16.125 0,-32.254 0,-48.379 0,-16.125 0,-28.586 0,-37.383 0,-46.91 4.43,-75.5 13.28,-85.762 8.86,-10.257 35.44,-15.394 79.73,-15.394 h 349.48 c 26.57,0 47.61,-8.43 63.11,-25.285 15.5,-16.86 23.26,-37.02 23.26,-60.473 0,-23.457 -7.39,-43.25 -22.15,-59.375 -14.76,-16.125 -36.92,-24.187 -66.44,-24.187 H 1282.2 c -79.73,0 -119.59,40.312 -119.59,120.945"
       style="fill:#ed1c24;fill-opacity:1;fill-rule:evenodd;stroke:none"
       transform="matrix(0.13333333,0,0,-0.13333333,0,241.33333)" />
    <path
       id="path5"
       d="m 3487.99,191.301 c -56.75,0 -130.7,40.273 -130.7,120.828 V 1518.23 c 0,27.83 6.57,49.44 19.71,64.81 13.13,15.38 78.68,16.32 97.6,16.32 18.92,0 30.73,-0.57 43.34,-15.22 12.61,-14.64 18.92,-35.88 18.92,-63.71 V 1114 c 0,-76.16 1.57,-60.44 4.73,-77.28 3.14,-16.84 10.99,-49.45 40.98,-77.99 l 53.09,-50.531 c 28.3,-26.933 39.93,-56.754 44.14,-77.988 4.2,-21.238 6.3,-68.477 6.3,-141.703 V 549.395 c 0,-16.106 0,-32.223 0,-48.332 0,-16.11 0,-28.559 0,-37.344 0,-46.867 3.42,-75.797 10.25,-86.781 6.83,-10.985 25.48,-16.477 55.96,-16.477 h 235.37 c 18.92,0 33.63,-8.059 44.14,-24.168 10.51,-16.109 15.76,-36.613 15.76,-61.512 0,-23.433 -5.25,-43.207 -15.76,-59.316 -10.51,-16.113 -25.75,-24.164 -45.71,-24.164 h -498.12"
       style="fill:#ed1c24;fill-opacity:1;fill-rule:evenodd;stroke:none"
       transform="matrix(0.13333333,0,0,-0.13333333,0,241.33333)" />
    <path
       id="path6"
       d="m 2518.22,1017.52 v 325.2 c 0,48.29 2.89,77.55 8.66,87.79 5.77,10.24 23.57,15.37 53.38,15.37 5.78,0 13.95,0 24.53,0 10.58,0 22.12,0 34.63,0 h 134.17 c 28.86,0 46.41,-4.75 52.66,-14.27 6.25,-9.51 9.38,-36.95 9.38,-82.31 0,-8.77 0,-20.85 0,-36.21 0,-15.36 0,-35.48 0,-60.36 V 1026.3 c 0,-21.95 0.24,-42.066 0.72,-60.355 0.48,-18.293 0.72,-34.754 0.72,-49.382 0,-39.508 -4.09,-64.016 -12.26,-73.528 -8.17,-9.512 -27.65,-14.265 -58.43,-14.265 h -187.56 c -27.89,0 -44.96,5.488 -51.22,16.46 -6.25,10.977 -9.38,39.875 -9.38,86.696 0,8.777 0,21.215 0,37.312 0,16.094 0,32.192 0,48.282"
       style="fill:#ed1c24;fill-opacity:1;fill-rule:evenodd;stroke:none"
       transform="matrix(0.13333333,0,0,-0.13333333,0,241.33333)" />
    <path
       id="path7"
       d="m 2413.76,181.539 c 66.2,0 99.3,40.438 99.3,121.309 v 390.211 c 0,45.582 4.45,103.468 12.41,113.019 7.96,9.551 22.61,23.274 58.38,31.715 5.93,1.398 19.01,-3.078 31.88,-3.078 12.87,0 17.13,-0.985 35.52,-1.106 l 302.63,-1.968 c 38.01,-0.246 61,-46.321 68.96,-55.871 7.97,-9.551 11.96,-37.864 11.96,-84.915 0,-8.824 0,-115.605 0,-131.046 0,-15.438 0,-35.661 0,-60.657 V 258.734 c 0,-29.398 7.36,-51.464 22.06,-66.164 14.71,-14.703 56.5,-11.297 79.8,-11.297 20.84,0 36.85,-3.039 52.17,12.399 15.32,15.437 22.99,36.391 22.99,62.863 v 421.274 c 0,73.519 -2.46,120.941 -7.36,142.261 -4.9,21.321 -23.61,46.254 -51.49,78.301 l -44.13,50.727 c -27.39,31.48 -44.14,55.142 -47.82,72.782 -3.67,17.65 -5.51,11.02 -5.51,86.01 v 374.96 c 0,33.82 -10.42,62.49 -31.26,86.01 -20.84,23.53 -44.14,35.3 -69.89,35.3 h -514.9 c -25.75,0 -49.04,-11.77 -69.88,-35.3 -20.85,-23.52 -31.27,-52.19 -31.27,-86.01 v -374.96 c 0,-60.28 -0.92,-48.88 -2.75,-71.67 -1.84,-22.79 -20.23,-50.728 -50.58,-87.122 l -42.29,-50.727 c -27.15,-32.562 -46.59,-56.98 -51.49,-78.301 -4.9,-21.32 -7.36,-68.742 -7.36,-142.261 V 302.848 c 0,-80.868 33.11,-121.309 99.31,-121.309 h 130.61"
       style="fill:#ed1c24;fill-opacity:1;fill-rule:evenodd;stroke:none"
       transform="matrix(0.13333333,0,0,-0.13333333,0,241.33333)" />
    <path
       id="path8"
       d="M 2563.66,936.898 H 2825 c 53.36,0 97,37.297 97,82.882 v 388.77 c 0,45.59 -43.64,82.88 -97,82.88 h -261.34 c -53.36,0 -97.01,-37.29 -97.01,-82.88 v -388.77 c 0,-45.585 43.65,-82.882 97.01,-82.882"
       style="fill:#ffffff;fill-opacity:1;fill-rule:evenodd;stroke:none"
       transform="matrix(0.13333333,0,0,-0.13333333,0,241.33333)" />
    <path
       id="path9"
       d="M 2563.66,936.898 H 2825 c 53.36,0 97,37.297 97,82.882 v 388.77 c 0,45.59 -43.64,82.88 -97,82.88 h -261.34 c -53.36,0 -97.01,-37.29 -97.01,-82.88 v -388.77 c 0,-45.585 43.65,-82.882 97.01,-82.882 z"
       style="fill:none;stroke:#ed1f2a;stroke-width:39.9997;stroke-linecap:butt;stroke-linejoin:miter;stroke-miterlimit:22.9256;stroke-dasharray:none;stroke-opacity:1"
       transform="matrix(0.13333333,0,0,-0.13333333,0,241.33333)" />
  </g>
</svg>
