<?xml version="1.0" encoding="utf-8"?>
<!-- Generator: Adobe Illustrator 19.2.1, SVG Export Plug-In . SVG Version: 6.00 Build 0)  -->
<svg version="1.1" id="layer" xmlns="http://www.w3.org/2000/svg" xmlns:xlink="http://www.w3.org/1999/xlink" x="0px" y="0px"
	 viewBox="0 0 652 652" style="enable-background:new 0 0 652 652;" xml:space="preserve">
<style type="text/css">
	.st0{fill:#FFEC00;}
</style>
<path d="M371.1,396.7c3.7,1.1,8.2,2.5,8.2,8c0,4.3-3.8,7.2-9.4,7.2c-3.3,0-6.9-1.4-9.2-3.7c-0.4-0.4-0.5-1.1-0.2-1.7l0.7-1.2
	c0.2-0.4,0.6-0.6,1-0.7c0.4-0.1,0.8,0.1,1.1,0.4c1.6,1.5,4.2,2.7,6.6,2.7c2.5,0,5.1-0.8,5.1-3.1c0-2.3-1.6-3-5.4-4.1
	c-3.6-1.1-8.1-2.4-8.1-7.8c0-4.1,3.6-6.9,9-6.9c2.6,0,5.4,0.8,7.4,2.1c0.6,0.4,0.8,1.1,0.5,1.8l-0.6,1.3c-0.2,0.3-0.5,0.6-0.9,0.7
	c-0.4,0.1-0.8,0-1.1-0.2c-1.4-0.9-3.4-1.5-5.3-1.5c-2.2,0-4.7,0.7-4.7,2.6C365.8,394.9,367.4,395.6,371.1,396.7 M406.4,410
	c0.2,0.4,0.2,0.9-0.1,1.3c-0.3,0.4-0.7,0.6-1.2,0.6h-1.5c-0.5,0-1-0.3-1.2-0.8l-2.6-5.8H388l-2.6,5.8c-0.2,0.5-0.7,0.8-1.2,0.8h-1.5
	c-0.5,0-0.9-0.2-1.1-0.6c-0.3-0.4-0.3-0.9-0.1-1.3l10.5-23.1c0.2-0.5,0.7-0.8,1.2-0.8h1.5c0.5,0,1,0.3,1.2,0.8L406.4,410z
	 M397.9,401.2l-4.1-8.9l-4,8.9H397.9z M413.3,386h-1.4c-0.8,0-1.4,0.6-1.4,1.4v23.1c0,0.8,0.6,1.4,1.4,1.4h1.4
	c0.8,0,1.4-0.6,1.4-1.4v-23.1C414.7,386.7,414,386,413.3,386 M442.1,386h-1.4c-0.8,0-1.4,0.6-1.4,1.4v16.8l-13-17.6
	c-0.3-0.4-0.7-0.6-1.1-0.6h-1.6c-0.8,0-1.4,0.6-1.4,1.4v23.1c0,0.8,0.6,1.4,1.4,1.4h1.4c0.8,0,1.4-0.6,1.4-1.4v-16.8l12.9,17.6
	c0.3,0.3,0.7,0.6,1.1,0.6h1.6c0.8,0,1.4-0.6,1.4-1.4v-23.1C443.5,386.7,442.9,386,442.1,386 M466,386h-17c-0.8,0-1.4,0.6-1.4,1.4
	v1.4c0,0.8,0.6,1.4,1.4,1.4h6.4v20.4c0,0.8,0.6,1.4,1.4,1.4h1.4c0.8,0,1.4-0.6,1.4-1.4v-20.4h6.4c0.8,0,1.4-0.6,1.4-1.4v-1.4
	C467.3,386.7,466.7,386,466,386 M476.1,398.6h-7.4c-0.8,0-1.4,0.6-1.4,1.4v1.1c0,0.8,0.6,1.4,1.4,1.4h7.4c0.8,0,1.4-0.6,1.4-1.4V400
	C477.5,399.3,476.9,398.6,476.1,398.6 M504.8,397.8h-1.3c0,0,0,0,0,0h-4.1c-0.8,0-1.4,0.6-1.4,1.4v1.4c0,0.8,0.6,1.4,1.4,1.4h2.8
	v4.2c-1.6,1.1-3.5,1.7-5.5,1.7c-5.1,0-9.2-4-9.2-8.9c0-4.9,4.1-8.9,9.2-8.9c2.4,0,4.7,0.9,6.4,2.4c0.3,0.2,0.6,0.4,1,0.3
	c0.4,0,0.7-0.2,1-0.5l0.8-1c0.5-0.6,0.4-1.4-0.2-1.9c-2.5-2.2-5.7-3.4-9-3.4c-7.4,0-13.4,5.8-13.4,12.9c0,7.2,6,13,13.3,13
	c3.3,0,6.6-1.2,9.1-3.3c0.3-0.3,0.5-0.6,0.5-1v-8.4C506.2,398.4,505.6,397.8,504.8,397.8 M524.2,386c7.4,0,13.3,5.8,13.3,12.9
	c0,7.2-6,13-13.3,13c-7.4,0-13.3-5.8-13.3-13C510.9,391.8,516.9,386,524.2,386 M524.2,407.8c5.1,0,9.2-4,9.2-8.9
	c0-4.9-4.1-8.9-9.2-8.9c-5.1,0-9.2,4-9.2,8.9C515,403.8,519.1,407.8,524.2,407.8 M559.4,398.2c2.1,1.3,3.3,3.4,3.3,6.1
	c0,4.7-3.6,7.6-9.7,7.6h-9.5c-0.8,0-1.4-0.6-1.4-1.4v-23.1c0-0.8,0.6-1.4,1.4-1.4h9.5c5.3,0,8.6,2.7,8.6,7.1
	C561.6,395.3,560.8,397,559.4,398.2 M553,396.5c3,0,4.5-1.1,4.5-3.2c0-2.6-2.4-3.2-4.5-3.2h-6.7v6.4H553 M546.3,407.8h6.7
	c2.6,0,5.6-0.6,5.6-3.7c0-3.1-3.5-3.5-5.6-3.5h-6.7V407.8z M590.1,410c0.2,0.4,0.2,0.9-0.1,1.3c-0.2,0.4-0.7,0.6-1.1,0.6h-1.5
	c-0.5,0-1-0.3-1.2-0.8l-2.6-5.8h-11.8l-2.6,5.8c-0.2,0.5-0.7,0.8-1.2,0.8h-1.5c-0.5,0-0.9-0.2-1.1-0.6c-0.3-0.4-0.3-0.9-0.1-1.3
	l10.5-23.1c0.2-0.5,0.7-0.8,1.2-0.8h1.5c0.5,0,1,0.3,1.2,0.8L590.1,410z M581.6,401.2l-4.1-8.9l-4,8.9H581.6z M596.9,386h-1.4
	c-0.8,0-1.4,0.6-1.4,1.4v23.1c0,0.8,0.6,1.4,1.4,1.4h1.4c0.8,0,1.4-0.6,1.4-1.4v-23.1C598.3,386.7,597.7,386,596.9,386 M625.8,386
	h-1.4c-0.8,0-1.4,0.6-1.4,1.4v16.8l-13-17.6c-0.3-0.4-0.7-0.6-1.1-0.6h-1.6c-0.8,0-1.4,0.6-1.4,1.4v23.1c0,0.8,0.6,1.4,1.4,1.4h1.4
	c0.8,0,1.4-0.6,1.4-1.4v-16.8l12.9,17.6c0.3,0.3,0.7,0.6,1.1,0.6h1.6c0.8,0,1.4-0.6,1.4-1.4v-23.1C627.1,386.7,626.5,386,625.8,386
	 M334.8,271.3c23.9,0,43,18.3,43,42.8c0,1.4-0.1,2.8-0.2,4.4c-0.2,2.3-2.2,4-4.5,4h-61.2c2.3,8.5,11.4,18.1,27.4,18.1
	c11.7,0,20.8-5.8,21.5-6.3c1.7-1,3.9-0.8,5.4,0.6l5.5,5.2c2.2,2,1.8,5.5-0.7,7.2c-6.5,4.4-15.9,9.7-32.4,9.7
	c-25.6,0-46.9-16.1-46.9-42.8C291.7,290,309.7,271.3,334.8,271.3 M334.8,287.4c-12.9,0-20.8,8.3-23.2,19.1h46.6
	C355.9,296.6,347.8,287.4,334.8,287.4 M276.1,273.2c-2,0-3.8,1.3-4.3,3.2l-17.4,56.1l-17.9-56.2c-0.6-1.9-2.4-3.2-4.3-3.2h-10.2
	c-2,0-3.7,1.3-4.3,3.2l-17.8,55.9l-17.5-55.9c-0.6-1.9-2.3-3.2-4.3-3.2h-10.4c-3.1,0-5.3,3.1-4.3,6l25,72.7c0.6,1.9,2.4,3.1,4.3,3.1
	h14.4c2,0,3.7-1.3,4.3-3.2l15.7-50.1l15.8,50.1c0.6,1.9,2.3,3.2,4.3,3.2h14.4c2,0,3.7-1.3,4.3-3.1l25-72.7c1-2.9-1.2-6-4.3-6H276.1
	 M622.7,271.4c-15.8,0-33.1,5.2-45.3,13.3c-1.3,0.8-2,2.3-2,3.8l0,61.9c0,2.5,2,4.5,4.5,4.5h9.9c2.5,0,4.5-2,4.5-4.5v-53.7
	c8.9-5.1,19.6-7.1,28.4-7.3c2.4-0.1,4.4-2.1,4.4-4.5v-9C627.1,273.5,625.2,271.4,622.7,271.4 M522.7,271.3c23.9,0,43,18.3,43,42.8
	c0,1.4-0.1,2.8-0.2,4.4c-0.2,2.3-2.2,4-4.5,4h-61.2c2.3,8.5,11.4,18.1,27.4,18.1c11.7,0,20.8-5.8,21.5-6.3c1.7-1,3.9-0.8,5.4,0.6
	l5.5,5.2c2.2,2,1.8,5.5-0.7,7.2c-6.5,4.4-15.9,9.7-32.4,9.7c-25.6,0-46.9-16.1-46.9-42.8C479.6,290,497.6,271.3,522.7,271.3
	 M522.7,287.4c-12.9,0-20.8,8.3-23.2,19.1H546C543.8,296.6,535.7,287.4,522.7,287.4 M431.2,271.3c24.1,0,41.9,19.6,41.9,42.8
	c0,10.5-3.4,20.2-10.2,28.1c-6.9,8.1-17,14.6-35.3,14.6c-13.7,0-30.5-7-38.2-18.5c-1.1-1.7-2-3.6-2-5.7v-86.3c0-2.5,2-4.5,4.5-4.5
	h9.5c2.5,0,4.5,2,4.5,4.5v32.2C416,272.2,423.9,271.3,431.2,271.3 M428.7,339.6c13.5,0,25.7-11.2,25.7-25.5
	c0-13.4-10.9-25.6-25.7-25.6c-11.7,0-19.3,7-22.6,12.4v28.5C410.7,335.2,418.2,339.6,428.7,339.6 M167.4,348.4l-26.9-78.2
	c-1.3-3.8-6.2-4.7-8.7-1.8l-14.3,16.9l13.2,38.3c1.1,3.3-1.2,6.6-4.7,6.6H79.5L65,347.4c-2.5,3-0.3,7.6,3.6,7.6h94.1
	C166.1,355,168.5,351.7,167.4,348.4"/>
<path class="st0" d="M103.7,245.4l26.9,78.2c1.1,3.3-1.2,6.6-4.7,6.6H31.9c-4,0-6.2-4.6-3.6-7.6l66.8-79
	C97.5,240.7,102.4,241.6,103.7,245.4"/>
</svg>
